{"title":"Brock - Part 1","uid":16004681,"size":2089319866,"categoryP":"video","categoryS":"tv_shows","magnet":"?xt=urn:btih:5315970b4b0ae8636f5d68bd9388cf6cb4dcb94e&amp;dn=Brock+-+Part+1&amp;tr=udp%3A%2F%2Ftracker.leechers-paradise.org%3A6969&amp;tr=udp%3A%2F%2Fzer0day.ch%3A1337&amp;tr=udp%3A%2F%2Fopen.demonii.com%3A1337&amp;tr=udp%3A%2F%2Ftracker.coppersurfer.tk%3A6969&amp;tr=udp%3A%2F%2Fexodus.desync.com%3A6969","seeders":12,"leechers":6,"uploader":"Bullrout","files":1,"time":1476160664,"description":"Brock - Part 1\r\n\r\nRelive the life of Australian motor racing legend Peter Brock. Part 1 covers Brock's unconventional path to success, career off the race track and front-page love affairs from 1969 to 1979.\r\n\r\nComplete name : Brock - Part 1.mkv\r\nFormat : Matroska\r\nFormat version : Version 4 / Version 2\r\nFile size : 1.95 GiB\r\nDuration : 1 h 23 min\r\nOverall bit rate mode : Variable\r\nOverall bit rate : 3 334 kb/s\r\nEncoded date : UTC 2016-10-10 18:15:51\r\nWriting application : mkvmerge v9.4.2 ('So High') 64bit\r\nWriting library : libebml v1.3.4 + libmatroska v1.4.5\r\n\r\nVideo\r\nID : 2\r\nFormat : AVC\r\nFormat/Info : Advanced Video Codec\r\nFormat profile :   \r\nFormat settings, CABAC : Yes\r\nFormat settings, ReFrames : 3 frames\r\nCodec ID : V_MPEG4/ISO/AVC\r\nDuration : 1 h 23 min\r\nBit rate mode : Variable\r\nBit rate : 2 949 kb/s\r\nMaximum bit rate : 3 000 kb/s\r\nWidth : 1 280 pixels\r\nHeight : 720 pixels\r\nDisplay aspect ratio : 16:9\r\nFrame rate mode : Constant\r\nFrame rate : 25.000 FPS\r\nStandard : PAL\r\nColor space : YUV\r\nChroma subsampling : 4:2:0\r\nBit depth : 8 bits\r\nScan type : Progressive\r\nBits/(Pixel*Frame) : 0.128\r\nStream size : 1.72 GiB (88%)\r\nWriting library : x264 core 112\r\nDefault : Yes\r\nForced : No\r\nColor range : Limited\r\nColor primaries : BT.709\r\nTransfer characteristics : BT.709\r\nMatrix coefficients : BT.709\r\n\r\nAudio\r\nID : 1\r\nFormat : AC-3\r\nFormat/Info : Audio Coding 3\r\nMode extension : CM (complete main)\r\nFormat settings, Endianness : Big\r\nCodec ID : A_AC3\r\nDuration : 1 h 23 min\r\nBit rate mode : Constant\r\nBit rate : 384 kb/s\r\nChannel(s) : 6 channels\r\nChannel positions : Front: L C R, Side: L R, LFE\r\nSampling rate : 48.0 kHz\r\nFrame rate : 31.250 FPS (1536 spf)\r\nCompression mode : Lossy\r\nStream size : 229 MiB (12%)\r\nDefault : Yes\r\nForced : No","torrent":{"xt":"urn:btih:5315970b4b0ae8636f5d68bd9388cf6cb4dcb94e","amp;dn":"Brock+-+Part+1","amp;tr":["udp%3A%2F%2Ftracker.leechers-paradise.org%3A6969","udp%3A%2F%2Fzer0day.ch%3A1337","udp%3A%2F%2Fopen.demonii.com%3A1337","udp%3A%2F%2Ftracker.coppersurfer.tk%3A6969","udp%3A%2F%2Fexodus.desync.com%3A6969"],"infoHash":"5315970b4b0ae8636f5d68bd9388cf6cb4dcb94e","infoHashBuffer":{"type":"Buffer","data":[83,21,151,11,75,10,232,99,111,93,104,189,147,136,207,108,180,220,185,78]},"announce":[],"urlList":[]}}